IKResults
version=1
nRows=8
nColumns=67
inDegrees=yes

Units are S.I. units (second, meters, Newtons, ...)
Angles are in degrees.

endheader
time	pelvis_tilt	pelvis_list	pelvis_rotation	pelvis_tx	pelvis_ty	pelvis_tz	hip_flexion_r	hip_adduction_r	hip_rotation_r	knee_angle_r	knee_rot_r	knee_adduc_r	ankle_angle_r	ankle_rot_r	ankle_add_r	subtalar_angle_r	mtp_angle_r	mtp_rot_r	mtp_add_r	hip_flexion_l	hip_adduction_l	hip_rotation_l	knee_angle_l	knee_rot_l	knee_adduc_l	ankle_angle_l	ankle_rot_l	ankle_add_l	subtalar_angle_l	mtp_angle_l	mtp_rot_l	mtp_add_l	lumbar_extension	lumbar_bending	lumbar_rotation	neck_flexion	neck_lateral_bending	neck_rotation	arm_flex_r	arm_add_r	arm_rot_r	elbow_flex_r	elbow_rot_r	elbow_add_r	pro_sup_r	wrist_flex_r	wrist_adduc_r	wrist_rot_r	wrist_dev_r	hand_finger_flex_r	hand_finger_adduc_r	hand_finger_rot_r	arm_flex_l	arm_add_l	arm_rot_l	elbow_flex_l	elbow_rot_l	elbow_add_l	pro_sup_l	wrist_flex_l	wrist_adduc_l	wrist_rot_l	wrist_dev_l	hand_finger_flex_l	hand_finger_adduc_l	hand_finger_rot_l
      2.43500000	     13.49066659	     11.32484585	      0.05238106	      0.75113481	      0.73079229	      0.85815915	    -24.47820096	    -11.12226484	     -1.53628944	    -40.80522732	     -5.00000000	      2.20998800	     -5.22110022	     -4.78087924	      1.73068846	     -1.83009728	     17.62606124	     -2.00000000	      2.00000000	     14.63305178	     12.97275548	      5.82991189	    -30.18653488	      5.00000000	     -2.89646453	      0.54981639	      3.52906798	      0.35260060	     -1.26532432	     27.87045734	      1.76256412	      2.00000000	    -25.70313281	    -16.44932442	      5.20522974	      0.00000000	      0.00000000	      0.00000000	      0.00000000	      0.00000000	      0.00000000	      0.00000000	      0.00000000	      0.00000000	     -0.00042092	      0.00000000	      0.00000000	      0.00000000	      0.00000000	      0.00000000	      0.00000000	      0.00000000	      0.00000000	      0.00000000	      0.00000000	      0.00000000	      0.00000000	      0.00000000	      0.00000000	      0.00000000	      0.00000000	      0.00000000	      0.00000000	      0.00000000	      0.00000000	      0.00000000
      2.44000000	     13.55944828	     11.29072470	      0.19111251	      0.75750889	      0.73230754	      0.85715516	    -23.77220873	    -11.11345766	     -1.64380173	    -41.85905343	     -5.00000000	      2.21084164	     -5.16391055	     -4.88996042	      1.66512077	     -1.95490001	     17.67709177	     -2.00000000	      2.00000000	     13.75503143	     13.12033640	      5.95859819	    -29.82398187	      5.00000000	     -2.71206516	      0.70406581	      3.36101950	      0.41908872	     -1.21701405	     27.83744619	      1.75767193	      2.00000000	    -25.70017437	    -16.29012577	      5.18319667	      0.00000000	      0.00000000	      0.00000000	      0.00000000	      0.00000000	      0.00000000	      0.00000000	      0.00000000	      0.00000000	     -0.00042092	      0.00000000	      0.00000000	      0.00000000	      0.00000000	      0.00000000	      0.00000000	      0.00000000	      0.00000000	      0.00000000	      0.00000000	      0.00000000	      0.00000000	      0.00000000	      0.00000000	      0.00000000	      0.00000000	      0.00000000	      0.00000000	      0.00000000	      0.00000000	      0.00000000
      2.44500000	     13.84972477	     11.71055055	     -0.35238199	      0.76427107	      0.73403530	      0.85665392	    -23.19622502	    -11.87578315	     -0.57578546	    -42.93549033	     -5.00000000	      2.87015776	     -4.04725917	     -4.43389325	     -0.08887565	     -3.95990452	     19.09431390	     -2.00000000	      2.00000000	     12.43573666	     13.64858680	      3.94651628	    -28.96673779	      5.00000000	     -1.78401871	      1.41346375	      1.85692630	      2.75917472	     -0.98247208	     26.60489925	      1.67384315	      2.00000000	    -25.78173286	    -16.86110830	      5.45297629	      0.00000000	      0.00000000	      0.00000000	      0.00000000	      0.00000000	      0.00000000	      0.00000000	      0.00000000	      0.00000000	     -0.00042092	      0.00000000	      0.00000000	      0.00000000	      0.00000000	      0.00000000	      0.00000000	      0.00000000	      0.00000000	      0.00000000	      0.00000000	      0.00000000	      0.00000000	      0.00000000	      0.00000000	      0.00000000	      0.00000000	      0.00000000	      0.00000000	      0.00000000	      0.00000000	      0.00000000
      2.45000000	     13.88354548	     11.65406405	     -0.18235401	      0.77054116	      0.73567218	      0.85559861	    -22.49793089	    -11.82690549	     -0.75397472	    -43.67339087	     -5.00000000	      2.83886672	     -3.83122574	     -4.61224764	     -0.07125576	     -4.09240869	     19.12800240	     -2.00000000	      2.00000000	     11.54473163	     13.78800801	      4.16318179	    -28.51542234	      5.00000000	     -1.59989298	      1.62521090	      1.79239700	      2.73813816	     -0.93646374	     26.57431463	      1.67349248	      2.00000000	    -25.75989227	    -16.65052474	      5.39630256	      0.00000000	      0.00000000	      0.00000000	      0.00000000	      0.00000000	      0.00000000	      0.00000000	      0.00000000	      0.00000000	     -0.00042092	      0.00000000	      0.00000000	      0.00000000	      0.00000000	      0.00000000	      0.00000000	      0.00000000	      0.00000000	      0.00000000	      0.00000000	      0.00000000	      0.00000000	      0.00000000	      0.00000000	      0.00000000	      0.00000000	      0.00000000	      0.00000000	      0.00000000	      0.00000000	      0.00000000
      2.45500000	     13.96516539	     11.83726825	     -0.02814006	      0.77698576	      0.73730649	      0.85472530	    -21.93888631	    -11.84635392	     -0.94923577	    -44.27193899	     -5.00000000	      2.60280940	     -2.57518811	     -4.98718237	      0.10505170	     -4.60670736	     19.25716739	     -2.00000000	      2.00000000	     10.54078670	     14.17864415	      4.39026986	    -27.97431358	      5.00000000	     -1.40079648	      2.20627350	      1.77895872	      2.78513311	     -0.91517493	     26.44151318	      1.67542076	      2.00000000	    -25.76794973	    -16.77430524	      5.05946389	      0.00000000	      0.00000000	      0.00000000	      0.00000000	      0.00000000	      0.00000000	      0.00000000	      0.00000000	      0.00000000	     -0.00042092	      0.00000000	      0.00000000	      0.00000000	      0.00000000	      0.00000000	      0.00000000	      0.00000000	      0.00000000	      0.00000000	      0.00000000	      0.00000000	      0.00000000	      0.00000000	      0.00000000	      0.00000000	      0.00000000	      0.00000000	      0.00000000	      0.00000000	      0.00000000	      0.00000000
      2.46000000	     13.97224814	     11.77524926	      0.17951403	      0.78305719	      0.73904613	      0.85369621	    -21.23174259	    -11.75320209	     -1.05610505	    -44.75836786	     -5.00000000	      2.59234110	     -2.28167178	     -5.00000000	      0.14761579	     -4.76703194	     19.28447520	     -2.00000000	      2.00000000	      9.63449100	     14.28021086	      4.59346738	    -27.42586697	      5.00000000	     -1.21378628	      2.34281720	      1.67899639	      2.78071843	     -0.84484284	     26.41003387	      1.67365389	      2.00000000	    -25.77833715	    -16.54670838	      5.00319486	      0.00000000	      0.00000000	      0.00000000	      0.00000000	      0.00000000	      0.00000000	      0.00000000	      0.00000000	      0.00000000	     -0.00042092	      0.00000000	      0.00000000	      0.00000000	      0.00000000	      0.00000000	      0.00000000	      0.00000000	      0.00000000	      0.00000000	      0.00000000	      0.00000000	      0.00000000	      0.00000000	      0.00000000	      0.00000000	      0.00000000	      0.00000000	      0.00000000	      0.00000000	      0.00000000	      0.00000000
      2.46500000	     14.10296269	     11.91233935	      0.40201097	      0.78943718	      0.74084450	      0.85281146	    -20.83052153	    -11.65405911	     -1.25158252	    -45.00134564	     -5.00000000	      2.34076674	     -0.70794667	     -5.00000000	      0.37504191	     -5.80889972	     19.38814445	     -2.00000000	      2.00000000	      8.51688255	     14.60448653	      4.72081320	    -26.78486138	      5.00000000	     -0.92419174	      2.72569882	      1.56518868	      2.89653847	     -0.74713234	     26.25604489	      1.67280699	      2.00000000	    -25.88244557	    -16.57198145	      4.61345952	      0.00000000	      0.00000000	      0.00000000	      0.00000000	      0.00000000	      0.00000000	      0.00000000	      0.00000000	      0.00000000	     -0.00042092	      0.00000000	      0.00000000	      0.00000000	      0.00000000	      0.00000000	      0.00000000	      0.00000000	      0.00000000	      0.00000000	      0.00000000	      0.00000000	      0.00000000	      0.00000000	      0.00000000	      0.00000000	      0.00000000	      0.00000000	      0.00000000	      0.00000000	      0.00000000	      0.00000000
      2.47000000	     14.31527216	     11.95557867	      0.68542832	      0.79543950	      0.74278875	      0.85182799	    -20.46794101	    -11.51272974	     -1.24006517	    -45.19444501	     -5.00000000	      2.38789962	      0.16597720	     -5.00000000	      0.54888469	     -6.95767917	     19.47152229	     -2.00000000	      2.00000000	      7.32493624	     14.80635006	      4.77308220	    -26.12721936	      5.00000000	     -0.60653346	      2.95506545	      1.32756269	      3.07959605	     -0.48610459	     26.02165445	      1.66949835	      2.00000000	    -26.18581215	    -16.42342333	      4.28027390	      0.00000000	      0.00000000	      0.00000000	      0.00000000	      0.00000000	      0.00000000	      0.00000000	      0.00000000	      0.00000000	     -0.00042092	      0.00000000	      0.00000000	      0.00000000	      0.00000000	      0.00000000	      0.00000000	      0.00000000	      0.00000000	      0.00000000	      0.00000000	      0.00000000	      0.00000000	      0.00000000	      0.00000000	      0.00000000	      0.00000000	      0.00000000	      0.00000000	      0.00000000	      0.00000000	      0.00000000
